<?xml version="1.0" encoding="UTF-8" standalone="no"?>
<!-- Created with Inkscape (http://www.inkscape.org/) -->

<svg
   width="26.335787mm"
   height="24.38632mm"
   viewBox="0 0 26.335787 24.38632"
   version="1.1"
   id="svg1"
   xml:space="preserve"
   xmlns="http://www.w3.org/2000/svg"
   xmlns:svg="http://www.w3.org/2000/svg"><defs
     id="defs1" /><g
     id="layer2"
     transform="translate(-115.32025,-126.31022)"><g
       id="g8"><path
         id="rect1-5"
         style="fill:#e6001e;fill-opacity:1;stroke-width:0.121;stroke-linecap:round;stroke-linejoin:round"
         d="m 115.32024,126.31022 h 26.33578 v 18.51344 l -13.17185,5.87288 -13.16394,-5.87288 z" /><path
         id="rect1-5-1"
         style="fill:#ffffff;fill-opacity:1;stroke-width:0.105996;stroke-linecap:round;stroke-linejoin:round"
         d="m 116.81718,127.77249 h 23.33399 v 16.21778 l -11.66699,5.04529 -11.667,-5.04529 z" /><path
         id="rect1-5-2"
         style="fill:#414142;fill-opacity:1;stroke-width:0.0968;stroke-linecap:round;stroke-linejoin:round"
         d="m 117.82939,128.64397 h 21.30957 v 14.81075 l -10.65478,4.59896 -10.65479,-4.59896 z" /><path
         style="fill:#e6001f;fill-opacity:1;stroke:#ffffff;stroke-width:0.321;stroke-linecap:round;stroke-linejoin:round;stroke-miterlimit:5;stroke-dasharray:none;stroke-opacity:1"
         d="m 60.486293,137.8371 h 0.345313 a 1.2723666,1.2723666 45 0 1 1.272367,1.27237 v 5.09392 a 0.55734325,0.55734325 135 0 1 -0.557343,0.55734 h -1.0538 a 0.37156174,0.37156174 135 0 0 -0.371562,0.37156 v 0.34213 a 0.37156174,0.37156174 45 0 0 0.371562,0.37156 l 6.700611,0 a 0.40590732,0.40590732 135 0 0 0.405907,-0.40591 v -0.22191 a 0.45742748,0.45742748 45 0 0 -0.457427,-0.45743 h -1.103758 a 0.67131061,0.67131061 45 0 1 -0.671311,-0.67131 v -2.30252 h 3.153595 l 3.239205,2.71815 a 0.14477591,0.14477591 110.00071 0 1 -0.09306,0.25568 h -0.609564 a 0.39775328,0.39775328 135 0 0 -0.397753,0.39775 v 0.23455 a 0.45294954,0.45294954 45 0 0 0.45295,0.45295 h 6.566824 a 0.36463553,0.36463553 135 0 0 0.364636,-0.36464 v -0.29799 a 0.42262203,0.42262203 45 0 0 -0.422622,-0.42262 l -0.27368,0 a 2.7131278,2.7131278 17.979937 0 1 -1.593198,-0.51705 l -3.75229,-2.72218 c 0,0 3.976237,-0.0726 3.91858,-2.41984 -0.03502,-1.42551 -1.615968,-2.38861 -7.015792,-2.38861 -5.518856,0 -7.666147,0.002 -8.460367,0.003 -0.23997,3.6e-4 -0.428706,0.19533 -0.421553,0.43519 l 0.0072,0.24285 a 0.45649458,0.45649458 44.145996 0 0 0.456292,0.44289 z"
         id="path3"
         transform="translate(59.788584,-4.5095341)" /><path
         style="fill:#414142;fill-opacity:1;stroke:#ffffff;stroke-width:0.321;stroke-linecap:round;stroke-linejoin:round;stroke-miterlimit:5;stroke-dasharray:none;stroke-opacity:1"
         d="m 128.77367,133.49723 c 3.29024,0.0743 3.63404,0.79868 3.63404,1.36783 0,0.56915 -0.89507,1.3051 -3.66953,1.33302 h -3.54913 l 0,-2.15734 a 0.54350773,0.54350773 135 0 1 0.54351,-0.54351 z"
         id="path6"
         transform="matrix(1.05,0,0,1.05,-6.2930664,-6.8645384)" /></g></g></svg>
